<svg xmlns="http://www.w3.org/2000/svg" viewBox="0 0 478 80" role="img" aria-label="Strata Sync" ><g fill="none" stroke="#f27d96" stroke-width="9" stroke-linecap="round"><path d="M8 12H16C36 12 28 40 48 40H70M8 40H70M8 68H16C36 68 28 40 48 40"/></g><path d="M61 27L75 40L61 53Z" fill="#f27d96"/><g style="color:#172033"><g transform="translate(114 18) skewX(-12) scale(.9 1.04)"><g fill="none" stroke="currentColor" stroke-width="6" stroke-linecap="square" stroke-linejoin="bevel"><path transform="translate(4 5)" d="M26 0H6L0 6V10L6 16H20L26 22V26L20 32H0"/><path transform="translate(41 5)" d="M0 0H28M14 0V32"/><path transform="translate(78 5)" d="M0 32V0H19L26 7V12L19 19H0M14 19L28 32"/><path transform="translate(115 5)" d="M0 32L14 0L28 32M5 22H23"/><path transform="translate(152 5)" d="M0 0H28M14 0V32"/><path transform="translate(189 5)" d="M0 32L14 0L28 32M5 22H23"/><path transform="translate(246.35 5)" d="M26 0H6L0 6V10L6 16H20L26 22V26L20 32H0"/><path transform="translate(283.35 5)" d="M0 0L14 16L28 0M14 16V32"/><path transform="translate(320.35 5)" d="M0 32V0L28 32V0"/><path transform="translate(357.35 5)" d="M27 0H7L0 7V25L7 32H27"/></g></g></g></svg>
